<?xml version="1.0" encoding="UTF-8"?>
<svg width="424px" height="416px" viewBox="0 0 424 416" version="1.1" xmlns="http://www.w3.org/2000/svg" xmlns:xlink="http://www.w3.org/1999/xlink">
    <title>Group</title>
    <g id="dmm" stroke="none" stroke-width="1" fill="none" fill-rule="evenodd">
        <g id="Group">
            <rect id="Rectangle" fill="#10B0EC" transform="translate(59.524184, 59.862791) rotate(-25.000000) translate(-59.524184, -59.862791) " x="15.0241839" y="15.3627908" width="89" height="89"></rect>
            <rect id="Rectangle" fill="#109ED3" x="137" y="30" width="89" height="89"></rect>
            <rect id="Rectangle" fill="#10B0EC" x="236" y="30" width="89" height="89"></rect>
            <rect id="Rectangle" fill="#32B240" x="335" y="30" width="89" height="89"></rect>
            <rect id="Rectangle" fill="#F8DA2C" x="38" y="129" width="89" height="89"></rect>
            <rect id="Rectangle" fill="#32B240" x="137" y="129" width="89" height="89"></rect>
            <rect id="Rectangle" fill="#32B240" x="236" y="129" width="89" height="89"></rect>
            <rect id="Rectangle" fill="#279D34" x="335" y="129" width="89" height="89"></rect>
            <rect id="Rectangle" fill="#F8DA2C" x="38" y="228" width="89" height="89"></rect>
            <rect id="Rectangle" fill="#F4D002" x="137" y="228" width="89" height="89"></rect>
            <rect id="Rectangle" fill="#F8DA2C" x="236" y="228" width="89" height="89"></rect>
            <rect id="Rectangle" fill="#FF0000" x="335" y="228" width="89" height="89"></rect>
            <rect id="Rectangle" fill="#FF0000" x="38" y="327" width="89" height="89"></rect>
            <rect id="Rectangle" fill="#FF0000" x="137" y="327" width="89" height="89"></rect>
            <rect id="Rectangle" fill="#E10709" x="236" y="327" width="89" height="89"></rect>
            <rect id="Rectangle" fill="#CB0806" x="335" y="327" width="89" height="89"></rect>
        </g>
    </g>
</svg>